inDegrees=no
num_controls=7
num_derivatives=13
num_iterations=79
num_multipliers=7
num_parameters=0
num_slacks=7
num_states=26
objective=0.517118
objective_accelerations=0.039150
objective_balance=0.002111
objective_effort=0.043247
objective_height=0.420969
objective_ligament=0.011641
solver_duration=1054.097537
status=Solve_Succeeded
success=true
DataType=double
version=3
OpenSimVersion=4.5
endheader
time	/jointset/ground_pelvis/pelvis_tilt/value	/jointset/ground_pelvis/pelvis_tx/value	/jointset/ground_pelvis/pelvis_ty/value	/jointset/hip_l/hip_flexion_l/value	/jointset/hip_l/hip_adduction_l/value	/jointset/hip_l/hip_rotation_l/value	/jointset/back/lumbar_extension/value	/jointset/patellofemoral_l/patellar_flexion_l/value	/jointset/knee_l/knee_flexion_l/value	/jointset/knee_l/knee_adduction_l/value	/jointset/knee_l/knee_rotation_l/value	/jointset/ankle_l/ankle_angle_l/value	/jointset/subtalar_l/subtalar_angle_l/value	/jointset/ground_pelvis/pelvis_tilt/speed	/jointset/ground_pelvis/pelvis_tx/speed	/jointset/ground_pelvis/pelvis_ty/speed	/jointset/hip_l/hip_flexion_l/speed	/jointset/hip_l/hip_adduction_l/speed	/jointset/hip_l/hip_rotation_l/speed	/jointset/back/lumbar_extension/speed	/jointset/patellofemoral_l/patellar_flexion_l/speed	/jointset/knee_l/knee_flexion_l/speed	/jointset/knee_l/knee_adduction_l/speed	/jointset/knee_l/knee_rotation_l/speed	/jointset/ankle_l/ankle_angle_l/speed	/jointset/subtalar_l/subtalar_angle_l/speed	/forceset/tau_hip_flexion_l	/forceset/tau_hip_adduction_l	/forceset/tau_hip_rotation_l	/forceset/tau_knee_flexion_l	/forceset/tau_ankle_angle_l	/forceset/tau_subtalar_angle_l	/forceset/tau_lumbar_extension	lambda_cid13_p0	lambda_cid13_p1	lambda_cid13_p2	lambda_cid13_p3	lambda_cid13_p4	lambda_cid13_p5	lambda_cid14_p0	/jointset/ground_pelvis/pelvis_tilt/accel	/jointset/ground_pelvis/pelvis_tx/accel	/jointset/ground_pelvis/pelvis_ty/accel	/jointset/hip_l/hip_flexion_l/accel	/jointset/hip_l/hip_adduction_l/accel	/jointset/hip_l/hip_rotation_l/accel	/jointset/back/lumbar_extension/accel	/jointset/patellofemoral_l/patellar_flexion_l/accel	/jointset/knee_l/knee_flexion_l/accel	/jointset/knee_l/knee_adduction_l/accel	/jointset/knee_l/knee_rotation_l/accel	/jointset/ankle_l/ankle_angle_l/accel	/jointset/subtalar_l/subtalar_angle_l/accel	gamma_cid13_p0	gamma_cid13_p1	gamma_cid13_p2	gamma_cid13_p3	gamma_cid13_p4	gamma_cid13_p5	gamma_cid14_p0
0.5	-0.1117248529038729	-0.05279762347221283	0.8263316785597158	0.8774525271072146	-0.3238698588223421	-0.1228687853525978	-0.7825250341186595	0.7885539913228578	0.7885539913228594	-0.1089864074518442	-0.1744504662610141	0.0772463295549798	-0.00495740018459982	-0.1814623759444485	-0.1944333264735169	-0.3296163663234718	1.43951393766381	-0.04083520131425578	0.4542281256193283	-0.8313337726928091	1.425766124953716	1.425766124953703	0.130190718770031	0.001070434704747978	0.2591481128470297	0.0384056533329843	-0.2804625731674515	0.04996211058075477	-0.003723489264978367	-0.2116247364614773	0.1185793476525954	0.02363161721649288	0.3314538550108287	-7.45131056781942	-10.07394958755837	2.425820753948532	-9.426478872065772	-706.2366587676257	-53.10292186271541	-14.89091669611266	0.265448901870676	0.6530821287255841	-0.09205022416546089	-1.485240884391071	0.1843739545492243	-0.2884454480495401	1.814393742130301	-1.157661597052963	-1.157661597052957	-0.400349671647715	0.04328546889228573	-0.003248568421689705	0.2038498002468619	-4.687357643225071e-08	-4.207541730765791e-07	8.472340750901275e-08	-5.1771106532062e-08	-5.89761928749812e-08	-5.573279935506016e-08	-7.062598254781196e-08
0.51	-0.1135260918859476	-0.05470928532959789	0.8230315938374667	0.8917716697741532	-0.3242691122057905	-0.1183431330732811	-0.7907469483937402	0.8027517295119732	0.802751729511919	-0.1077038074509195	-0.1744390876041398	0.07983696778004136	-0.004563464409211497	-0.1787683916932036	-0.1878974416892704	-0.330329381095368	1.424142089316339	-0.03899397851140853	0.4507200571406281	-0.8129836423295689	1.413582478635654	1.413582478635642	0.126448177712957	0.001129259326849662	0.2589287623523344	0.04039218268136964	-0.286254177674668	0.05039337805114937	-0.003963283091070806	-0.2143599564121849	0.118775880535521	0.02391454659029353	0.3370656052487827	-7.593260076693652	-10.10314424077868	2.351857792573077	-9.379355973010414	-709.8038043582688	-52.90639707946523	-14.36891530471775	0.2739229322869248	0.6540731553022706	-0.05025926663675567	-1.589037568046162	0.1872527258909587	-0.4093942658309414	1.855138682701114	-1.278556755423156	-1.278556755422928	-0.3434374006621069	-0.02419158004983311	-0.03890693179685129	0.1977038988532432	-6.685985048523671e-08	-3.119309808065356e-07	2.519856333064314e-07	-2.090281934220933e-08	-7.246233064253584e-08	-4.656614863483838e-08	-7.785987049222314e-08
0.52	-0.1152998810763937	-0.0565555420387352	0.8197265125349117	0.9059319178060036	-0.3246493021046376	-0.1138580428224322	-0.7987833981653322	0.816821663116612	0.8168216631165915	-0.1064550790760204	-0.1744293952089065	0.0824238867717924	-0.004149333460995607	-0.1759724176204831	-0.1813522968239685	-0.3306156823846439	1.40773501064404	-0.03702250439899681	0.4461157199398866	-0.7942408719950921	1.400205208067981	1.400205208067971	0.1234163935388777	0.0007331823922025984	0.2584042661855008	0.0424446878985054	-0.2920457821819279	0.05082464552142141	-0.004203076916152793	-0.2170951763629711	0.1189724134183795	0.0241974759638878	0.3426773554867418	-7.739031316022246	-10.13245666240181	2.278812707481146	-9.358119370451179	-713.4500113476604	-52.73252984255777	-13.8443019641759	0.2858468661660812	0.6549341449364715	-0.006707527641454031	-1.692286949356835	0.2104242164621515	-0.5076991924578327	1.892921736377743	-1.396386446974968	-1.396386446974961	-0.2581982950487322	-0.04769484245752597	-0.06427770284959176	0.2170449739968518	-9.81377291385484e-08	-1.51443284542733e-07	5.004877610005283e-07	2.772849706872538e-08	-1.004953872407748e-07	-3.486284758350218e-08	-8.8406235104781e-08
0.53	-0.1170451324390523	-0.05833630986229809	0.8164207276129244	0.9199226724192437	-0.3250097497670558	-0.1094212331661419	-0.8066305380713855	0.8307516907419596	0.8307516907420409	-0.1052362327641721	-0.1744240161154165	0.08500389149582629	-0.003715124800851081	-0.1730546283688667	-0.1748008964423808	-0.3304670694771605	1.390222298002525	-0.03509445729725654	0.4412735202872229	-0.7751296050512645	1.38559068809531	1.385590688095293	0.1202486685707111	0.000374703687370493	0.2575354337865029	0.04434730621588169	-0.2977422407279575	0.05108714771946594	-0.004396793986218429	-0.2198420781941792	0.1190981644768311	0.02443927452598829	0.3481957386089543	-7.90892776777542	-10.1387802100856	2.201072401296396	-9.278371265757867	-717.0707669224569	-52.53961184693015	-13.31781861319153	0.2982160580446668	0.6553093556069978	0.03675753621053778	-1.809821521679504	0.1798006755317405	-0.4684723366694873	1.928854798210577	-1.52541032058987	-1.525410320590969	-0.361681046323445	-0.02498974569408437	-0.1073723787469025	0.1693465949519801	-1.126455248544579e-07	-5.1235962517676e-08	6.347535162318445e-07	5.484368145234571e-08	-1.104186414710238e-07	-2.153364206646237e-08	-9.234079183385583e-08
0.54	-0.1187605116885555	-0.06005155040787833	0.8131186511872656	0.9337324882860226	-0.3253517558147949	-0.1050320439032911	-0.8142848401830336	0.8445292880580463	0.8445292880580476	-0.1040521879920324	-0.1744212348809866	0.08757337062180862	-0.003263394690664154	-0.1699979949818356	-0.168246841227439	-0.3298739831189608	1.371547261355764	-0.03333418145545308	0.4365916412346358	-0.7556733131143983	1.369719146195575	1.36971914619555	0.1164560856576514	0.0002136105345993573	0.2562991465746247	0.04594897790702335	-0.3034386992738621	0.05134964991761606	-0.004590511058558846	-0.2225889800252385	0.1192239155353617	0.02468107308832476	0.3537141217312332	-8.083196042009504	-10.14531377964871	2.124480199183598	-9.227567095078575	-720.7804701137002	-52.3828963182927	-12.79027604443061	0.3136156932492878	0.6554651116071059	0.08218716250175563	-1.92475175040585	0.1768699644747073	-0.4756350724425087	1.961926734985632	-1.647790832387689	-1.647790832387692	-0.3831698840272839	-0.008217732045353695	-0.137768665425901	0.1568556487498557	-1.085991862566456e-07	-1.772182050144482e-08	6.426300934192316e-07	5.815378359297965e-08	-1.003055186132837e-07	-6.405563523537692e-09	-8.896015686205576e-08
0.55	-0.1204447073772437	-0.06170132269820059	0.8098247312233888	0.9473500202421669	-0.3256766710424264	-0.1006896143237277	-0.8217430139257079	0.8581420239764714	0.8581420239764475	-0.1029080977360717	-0.1744193633957086	0.0901287208077412	-0.00279676759927798	-0.1668239262481052	-0.161715404619162	-0.328834920406301	1.351785972845448	-0.03164862817021915	0.4318286710675322	-0.7359215969249228	1.352626706744768	1.352626706744739	0.1123722978724147	0.0001535570186705856	0.2547136315900149	0.04735936740094021	-0.308849510293325	0.05155756967389188	-0.004771255915114033	-0.2252923693677503	0.1191285918790702	0.02486956658726559	0.358900930236399	-8.322666787953944	-10.11697025091518	2.041972828366129	-9.026226294932179	-724.2991604195269	-52.20316637129334	-12.26257287700179	0.3218725072292229	0.6508267595132401	0.1260102552153931	-2.027806261728538	0.1643430676239601	-0.4865498570153133	1.98776983544636	-1.770152689415794	-1.770152689416467	-0.4194147429802947	-0.005841471041999974	-0.177528145637328	0.1304938943888306	-1.02302394343236e-07	6.835214330662508e-09	6.315530129228167e-07	5.821254274094186e-08	-8.907366778050987e-08	6.710022856087706e-09	-8.434064626816202e-08
0.5600000000000001	-0.122096648369841	-0.06328601185762532	0.8065434507725521	0.9607647415411286	-0.3259847417257937	-0.09639679881950601	-0.8290024753515831	0.8715777990627639	0.8715777990627648	-0.1018045316613055	-0.1744182809075684	0.09266649879769313	-0.00231656395401769	-0.1635470557625539	-0.1552302150479351	-0.327346080510909	1.330985129919785	-0.02996527260189705	0.4266688261735722	-0.7159308497547092	1.334326979774417	1.334326979774384	0.1083512493988229	5.581111573503578e-05	0.2527847073790515	0.04866428868190371	-0.3142603213128101	0.05176548943005809	-0.004952000770975139	-0.2279957587103052	0.1190332682227328	0.02505806008604989	0.3640877387415772	-8.567174981685453	-10.08878950589168	1.960685362243886	-8.850508859096733	-727.9144321803079	-52.05954716502713	-11.73574159514483	0.3341760436137237	0.6462157041968923	0.1721425990481757	-2.132662633475385	0.1764304210924032	-0.55501001781378	2.009732931133328	-1.889248336296469	-1.88924833629647	-0.3706220216982655	-0.01575620944672654	-0.2064505106968488	0.1357620061591162	-9.330505845110978e-08	2.064372054182157e-08	5.977315432058402e-07	5.436969029769814e-08	-7.649934337769545e-08	1.741061863975405e-08	-7.823448492775592e-08
0.5700000000000001	-0.1237153282950952	-0.06480605165980867	0.8032792984096664	0.973966382744514	-0.3262759276829635	-0.09215795475220101	-0.8360607179595064	0.8848248364247876	0.8848248364247915	-0.1007403607093603	-0.1744186087259215	0.09518351183302659	-0.001823684509524127	-0.1601703527336676	-0.1487823943468096	-0.3254094927315869	1.309173623025112	-0.02827233935408906	0.4209962649574416	-0.6956704461932218	1.314903153297379	1.314903153297376	0.1045311378486627	-0.0001548261228245768	0.2505813704431359	0.04990140903666559	-0.3195470904355002	0.05187266546251926	-0.005110216317225569	-0.2307432615496264	0.1191275723165858	0.0251600293049	0.3691937066900225	-8.745797666175536	-10.03305806066892	1.873281054863936	-8.7664755195037	-731.4399553519623	-51.87237957880481	-11.21082112689953	0.3421930393515948	0.6433783481240105	0.2156378901683485	-2.230831014267845	0.1655775681638725	-0.5890060818989502	2.041277914342414	-1.99553574728114	-1.995535747276712	-0.3804566006879339	-0.02862137003663405	-0.2327497807037528	0.1160860457454744	-8.425115262393719e-08	4.156945860801474e-08	5.643044135930443e-07	5.20306756828776e-08	-6.522122407712e-08	2.642006067911246e-08	-7.101814617542669e-08
0.58	-0.1252996860687075	-0.06626175063597037	0.8000367561291326	0.9869448216195874	-0.3265502137493556	-0.0879789616787386	-0.8429149397626767	0.8978723183332727	0.8978723183332685	-0.09971294104873171	-0.1744220236944297	0.09767739659986668	-0.001318754062361055	-0.156682625431726	-0.1423620498436078	-0.3230240640404687	1.28634466425826	-0.02658529444470571	0.4146986274058608	-0.6751266888042736	1.294415889065396	1.294415889065422	0.1010009911379768	-0.0005616189204247769	0.2481590536806255	0.05107448921585817	-0.3248338595581693	0.05197984149494018	-0.005268431863608365	-0.233490764388943	0.1192218764104252	0.02526199852370478	0.3742996746384961	-8.930246789106283	-9.977414895648195	1.787157488423994	-8.704395653161376	-735.0715520083605	-51.71933987056394	-10.68904521703248	0.3563808982250365	0.6407204646120122	0.2619107814073622	-2.336153007911374	0.1752527534074997	-0.6800252849037802	2.066403696625557	-2.101935887285565	-2.101935887285566	-0.3126290538033668	-0.05498732125482635	-0.2502464760160567	0.1229539710452058	-7.512357432321598e-08	7.176414978774006e-08	5.313908431856931e-07	5.165014754228253e-08	-5.563118583992557e-08	3.322706993518612e-08	-6.235599497966278e-08
0.59	-0.1268486124590802	-0.06765349551728896	0.7968202924335746	0.9996900158131671	-0.3268077160921752	-0.08386483967546128	-0.8495626585669346	0.9107096069808818	0.9107096069808774	-0.09872029596248025	-0.1744296406679302	0.1001458375118956	-0.0008025415481086817	-0.1530830680250523	-0.1360023198261301	-0.3201953910833407	1.26253253937008	-0.02492920720789117	0.408146191271515	-0.6544058666002012	1.272860883417237	1.272860883417255	0.09746459086923881	-0.0009211778605421519	0.2454766955761873	0.05213506853772523	-0.3297030764828654	0.05201965244486456	-0.00537606811165943	-0.2360608300324954	0.1188706283143234	0.02532038388662117	0.3788866366380519	-9.240823520688915	-9.881085904074274	1.694920178639794	-8.385280052028204	-738.2969158266276	-51.52683818080915	-10.17172334316709	0.3646715241929512	0.6313005444751819	0.3043281484051067	-2.427998710082488	0.1585992637889577	-0.6398409606273515	2.07660229952902	-2.209415003136534	-2.209415003137722	-0.3836331239955201	-0.02025048399597435	-0.2850883254650576	0.09259381353137479	-6.671694747585598e-08	9.415104880714423e-08	5.008224915790371e-07	5.034233714363484e-08	-4.590655281968926e-08	4.018506168093754e-08	-5.515968028624403e-08
